<svg width="24" height="24" viewBox="0 0 24 24" fill="none" xmlns="http://www.w3.org/2000/svg">
<path d="M24 18.5965C23.127 18.8185 22.587 18.6062 22.1025 17.8787L18.657 13.1117L18.159 12.4517L14.1353 17.8945C13.6755 18.5492 13.1933 18.8342 12.3353 18.6025L17.4877 11.686L12.6907 5.43847C13.5157 5.27797 14.0857 5.35972 14.592 6.09847L18.1658 10.9247L21.7657 6.12472C22.227 5.46997 22.7227 5.22097 23.5507 5.46247L21.6907 7.92847L19.1708 11.2097C18.8708 11.5847 18.912 11.8412 19.188 12.2035L24 18.5965ZM0.006 11.5705L0.4275 9.49747C1.575 5.39497 6.2775 3.69022 9.5205 6.22522C11.4158 7.71622 11.8867 9.82522 11.793 12.1877H1.11C0.9495 16.4402 4.01025 19.0067 7.9125 17.6972C9.28125 17.2375 10.0875 16.1657 10.491 14.8247C10.6957 14.1527 11.0348 14.0477 11.6663 14.2397C11.3438 15.9167 10.6162 17.3177 9.07875 18.1945C6.7815 19.507 3.5025 19.0825 1.7775 17.2585C0.75 16.2002 0.3255 14.8592 0.135 13.4252C0.105 13.1882 0.045 12.9625 0 12.7352C0.004 12.3472 0.006 11.9592 0.006 11.5712V11.5705ZM1.1295 11.2855H10.7835C10.7205 8.21047 8.80575 6.02647 6.189 6.00772C3.3165 5.98522 1.254 8.11747 1.1295 11.2855Z" fill="black"/>
</svg>
