<svg width="25" height="24" viewBox="0 0 25 24" fill="none" xmlns="http://www.w3.org/2000/svg">
<path d="M8.5 24C10.708 24 12.5 22.208 12.5 20V16H8.5C6.292 16 4.5 17.792 4.5 20C4.5 22.208 6.292 24 8.5 24Z" fill="#0ACF83"/>
<path d="M4.5 12C4.5 9.792 6.292 8 8.5 8H12.5V16H8.5C6.292 16 4.5 14.208 4.5 12Z" fill="#A259FF"/>
<path d="M4.5 4C4.5 1.792 6.292 0 8.5 0H12.5V8H8.5C6.292 8 4.5 6.208 4.5 4Z" fill="#F24E1E"/>
<path d="M12.5 0H16.5C18.708 0 20.5 1.792 20.5 4C20.5 6.208 18.708 8 16.5 8H12.5V0Z" fill="#FF7262"/>
<path d="M20.5 12C20.5 14.208 18.708 16 16.5 16C14.292 16 12.5 14.208 12.5 12C12.5 9.792 14.292 8 16.5 8C18.708 8 20.5 9.792 20.5 12Z" fill="#1ABCFE"/>
</svg>
