<svg width="24" height="18" viewBox="0 0 24 18" fill="none" xmlns="http://www.w3.org/2000/svg">
<g clip-path="url(#clip0_42_361)">
<path d="M1.63636 17.9999H5.45455V8.72714L0 4.63623V16.3635C0 17.269 0.733636 17.9999 1.63636 17.9999Z" fill="#4285F4"/>
<path d="M18.5454 17.9999H22.3636C23.269 17.9999 24 17.2662 24 16.3635V4.63623L18.5454 8.72714" fill="#34A853"/>
<path d="M18.5454 1.63612V8.72703L24 4.63612V2.4543C24 0.430668 21.69 -0.722968 20.0727 0.490668" fill="#FBBC04"/>
<path d="M5.45459 8.72714V1.63623L12 6.54532L18.5455 1.63623V8.72714L12 13.6362" fill="#EA4335"/>
<path d="M0 2.4543V4.63612L5.45455 8.72703V1.63612L3.92727 0.490668C2.30727 -0.722968 0 0.430668 0 2.4543Z" fill="#C5221F"/>
</g>
<defs>
<clipPath id="clip0_42_361">
<rect width="24" height="18" fill="white"/>
</clipPath>
</defs>
</svg>
