<svg width="25" height="24" viewBox="0 0 25 24" fill="none" xmlns="http://www.w3.org/2000/svg">
<path d="M3.84495 21.601L1.91895 0H23.0809L21.1529 21.598L12.4869 24L3.84495 21.601Z" fill="#E44D26"/>
<path d="M12.5 22.1641L19.502 20.2221L21.15 1.76611H12.5V22.1641Z" fill="#F16529"/>
<path d="M12.4999 9.77804H8.99493L8.75193 7.06504H12.4999V4.41504H5.85693L5.91993 5.12604L6.57093 12.426H12.4999V9.77804ZM12.4999 16.658L12.4879 16.661L9.53793 15.864L9.34893 13.751H6.68993L7.06093 17.911L12.4879 19.418L12.4999 19.414V16.658Z" fill="#EBEBEB"/>
<path d="M12.491 9.77804V12.427H15.754L15.446 15.863L12.491 16.66V19.416L17.922 17.911L17.962 17.463L18.585 10.489L18.649 9.77704H17.935L12.491 9.77804ZM12.491 4.41504V7.06504H18.89L18.943 6.46904L19.064 5.12604L19.127 4.41504H12.491Z" fill="white"/>
<path d="M12.5001 23.9961L12.4871 24.0001H12.5001V23.9961Z" fill="#DEDEDE"/>
<path d="M12.4999 7.065H8.75195L8.99395 9.778H12.4899H12.4999V7.065ZM12.4999 0H1.91895L3.84495 21.601L12.4869 24L12.4999 23.996V19.414L12.4879 19.418L7.06095 17.911L6.68995 13.751H9.34895L9.53795 15.864L12.4879 16.661L12.4909 16.66L12.4999 16.658V12.427H6.57095L5.91995 5.127L5.85695 4.415H12.4909H12.4999V0Z" fill="#C64321"/>
<path d="M9.34893 13.751H6.68993L7.06093 17.911L12.4879 19.418L12.4999 19.414L12.4909 19.416V16.66L12.4879 16.661L9.53793 15.864L9.34893 13.751ZM12.4909 4.41504H5.85693L5.91993 5.12604L6.57093 12.426H12.4999H12.4909V9.77804H8.99493L8.75193 7.06504H12.4999H12.4909V4.41504Z" fill="#CDCDCD"/>
<path d="M12.5 16.658L12.491 16.66V19.416L12.5 19.414V16.658ZM12.5 9.77804H12.491V12.427H12.5V9.77804ZM12.5 4.41504H12.491V7.06504H12.5V4.41504Z" fill="#DEDEDE"/>
</svg>
