<svg width="25" height="24" viewBox="0 0 25 24" fill="none" xmlns="http://www.w3.org/2000/svg">
<g clip-path="url(#clip0_39_305)">
<path d="M0.5 0H24.5V24H0.5V0Z" fill="#F0D91F"/>
<path d="M20.2841 18.6288C20.0291 17.6678 18.0331 17.4438 16.6681 16.4238C15.2881 15.4938 14.9591 13.2438 16.0991 11.9528C16.4891 11.4728 17.1331 11.1128 17.8091 10.9478L18.5141 10.8588C19.8791 10.8278 20.7181 11.1878 21.3481 11.8928C21.5301 12.0718 21.6641 12.2528 21.9341 12.6728C21.2131 13.1218 21.2131 13.1218 20.1791 13.7978C19.9531 13.3178 19.5931 13.0178 19.2031 12.8978C18.6031 12.7178 17.8381 12.9118 17.6881 13.5578C17.6291 13.7528 17.6431 13.9328 17.7341 14.2628C17.9771 14.8178 18.7951 15.0578 19.5311 15.4028C21.6461 16.2608 22.3591 17.1808 22.5341 18.2758L22.4881 18.2088C22.6541 19.1538 22.4431 19.7688 22.4141 19.8588C21.6331 22.5288 17.2831 22.6188 15.5431 20.8628C15.1831 20.4428 14.9431 20.2338 14.7331 19.7538L16.5631 18.7028C17.0581 19.4528 17.5071 19.8588 18.3181 20.0388C19.4141 20.1738 20.5241 19.7988 20.2841 18.6288ZM8.63311 18.9758C8.65011 18.9758 8.69711 19.0668 8.76011 19.1718C8.99311 19.5608 9.19411 19.8308 9.59011 20.0268C9.97611 20.1478 10.8261 20.2358 11.1561 19.5468C11.3571 19.1988 11.2941 18.0678 11.2941 16.8358C11.2941 14.8948 11.3031 12.9688 11.3031 11.0308H13.5511L13.5471 11.0868C13.5471 13.1568 13.5591 15.2118 13.5471 17.2658C13.5521 18.5418 13.6601 19.6818 13.1501 20.6118C12.7971 21.3318 12.1221 21.7968 11.3391 22.0228C10.1361 22.2928 8.98711 22.1278 8.13211 21.6178C7.55811 21.2728 7.11311 20.7308 6.80811 20.1008L8.63311 18.9758Z" fill="black"/>
</g>
<defs>
<clipPath id="clip0_39_305">
<rect width="24" height="24" fill="white" transform="translate(0.5)"/>
</clipPath>
</defs>
</svg>
