<svg width="11" height="24" viewBox="0 0 11 24" fill="none" xmlns="http://www.w3.org/2000/svg">
<g clip-path="url(#clip0_42_392)">
<path d="M7.60915 2.67497C6.61217 1.47987 5.75367 0.266096 5.57828 0.014005C5.55981 -0.00466834 5.53211 -0.00466834 5.51365 0.014005C5.33825 0.266096 4.47974 1.47987 3.48277 2.67497C-5.07461 13.7016 4.83054 21.143 4.83054 21.143L4.91362 21.199C4.98746 22.3474 5.17209 24 5.17209 24H5.54134H5.91059C5.91059 24 6.09523 22.3567 6.16908 21.199L6.25214 21.1337C6.26138 21.1337 16.1665 13.7016 7.60915 2.67497ZM5.54134 20.9749C5.54134 20.9749 5.09824 20.5921 4.97824 20.396V20.3774L5.51365 8.37035C5.51365 8.333 5.56904 8.333 5.56904 8.37035L6.10445 20.3774V20.396C5.98444 20.5921 5.54134 20.9749 5.54134 20.9749Z" fill="#00684A"/>
</g>
<defs>
<clipPath id="clip0_42_392">
<rect width="11" height="24" fill="white"/>
</clipPath>
</defs>
</svg>
