<svg width="24" height="24" viewBox="0 0 24 24" fill="none" xmlns="http://www.w3.org/2000/svg">
<g clip-path="url(#clip0_39_329)">
<path d="M9.413 21.0272C8.798 21.3832 8.681 21.4272 8.102 21.6312C7.962 21.6792 7.75 21.7642 8.183 22.0122L11.082 23.7502C11.358 23.9132 11.679 23.9982 11.993 23.9982L11.995 24.0002C12.315 24.0002 12.629 23.9142 12.907 23.7522L21.589 18.6762C22.152 18.3422 22.5 17.7282 22.5 17.0702V6.92221C22.5 6.26021 22.153 5.64621 21.589 5.31821L12.907 0.236215C12.361 -0.0767851 11.633 -0.0767851 11.083 0.236215L2.411 5.31322C1.848 5.64222 1.5 6.26021 1.5 6.91721V17.0662C1.5 17.7282 1.847 18.3422 2.411 18.6702L4.686 19.9992C5.787 20.5512 6.181 20.5512 6.683 20.5512C8.314 20.5512 9.254 19.5512 9.254 17.8082V7.78521C9.254 7.64221 9.137 7.53322 9 7.53322H7.901C7.759 7.53322 7.647 7.64221 7.647 7.78521V17.8032C7.647 18.5792 6.857 19.3462 5.565 18.6942L3.186 17.3042C3.103 17.2622 3.05 17.1662 3.05 17.0702V6.92221C3.05 6.82421 3.103 6.72821 3.186 6.68021L11.858 1.60321H12.125L20.802 6.67522C20.886 6.72722 20.938 6.81721 20.938 6.91721V17.0702C20.938 17.1652 20.887 17.2602 20.807 17.3072L12.125 22.3842H11.858L9.63 21.0472L9.413 21.0272Z" fill="#8CC03E"/>
<path d="M9.413 21.027C8.798 21.383 8.681 21.427 8.102 21.631C7.962 21.679 7.75 21.764 8.183 22.012L11.082 23.75C11.358 23.913 11.679 23.998 11.993 23.998L11.995 24C11.997 24 11.998 24 12 24V22.385H11.858L9.63 21.047L9.413 21.027ZM11.997 0C11.678 0 11.358 0.078 11.083 0.235L2.411 5.313C1.848 5.642 1.5 6.26 1.5 6.917V17.066C1.5 17.728 1.847 18.342 2.411 18.67L4.686 19.999C5.787 20.551 6.181 20.551 6.683 20.551C8.314 20.551 9.254 19.551 9.254 17.808V7.785C9.254 7.642 9.137 7.533 9 7.533H7.901C7.759 7.533 7.647 7.642 7.647 7.785V17.803C7.647 18.374 7.22 18.94 6.48 18.94C6.214 18.94 5.907 18.867 5.565 18.694L3.186 17.304C3.103 17.262 3.05 17.166 3.05 17.07V6.922C3.05 6.824 3.103 6.728 3.186 6.68L11.858 1.603H12V0H11.997Z" fill="#7AA736"/>
<path d="M14.674 15.4701C12.375 15.4701 11.872 14.8831 11.704 13.7261C11.685 13.6021 11.581 13.5121 11.455 13.5121H10.332C10.19 13.5121 10.083 13.6251 10.083 13.7641C10.083 15.2461 10.878 17.0121 14.68 17.0121C17.424 17.0061 19.005 15.9071 19.005 13.9921L19.002 13.9931C19.002 12.0931 17.733 11.5891 15.067 11.2301C12.369 10.8691 12.097 10.6831 12.097 10.0441C12.097 9.51607 12.328 8.81107 14.326 8.81107C16.107 8.81107 16.766 9.20207 17.038 10.4201C17.061 10.5351 17.166 10.6201 17.283 10.6201H18.411L18.595 10.5391L18.66 10.3441C18.487 8.24407 17.109 7.26807 14.327 7.26807C11.851 7.26807 10.374 8.32607 10.374 10.1021C10.374 12.0261 11.845 12.5591 14.219 12.7961C17.063 13.0781 17.283 13.5021 17.283 14.0691C17.283 15.0511 16.503 15.4701 14.674 15.4701Z" fill="#8CC03E"/>
<path d="M11.455 13.512H10.332C10.19 13.512 10.083 13.625 10.083 13.764C10.083 15.228 10.859 16.97 14.544 17.011V15.469C12.356 15.447 11.869 14.86 11.704 13.725C11.685 13.601 11.581 13.512 11.455 13.512ZM14.327 7.26904C11.851 7.26904 10.374 8.32704 10.374 10.103C10.374 12.027 11.845 12.56 14.219 12.797C14.331 12.808 14.44 12.819 14.544 12.831V11.158C12.333 10.841 12.098 10.639 12.098 10.045C12.098 9.51704 12.329 8.81204 14.327 8.81204C14.402 8.81204 14.474 8.81304 14.545 8.81404V7.27104C14.473 7.26904 14.4 7.26904 14.327 7.26904Z" fill="#7AA736"/>
</g>
<defs>
<clipPath id="clip0_39_329">
<rect width="24" height="24" fill="white"/>
</clipPath>
</defs>
</svg>
