<svg width="25" height="24" viewBox="0 0 25 24" fill="none" xmlns="http://www.w3.org/2000/svg">
<g clip-path="url(#clip0_39_308)">
<path d="M12.5 14.1461C13.6858 14.1461 14.647 13.1848 14.647 11.9991C14.647 10.8133 13.6858 9.85205 12.5 9.85205C11.3143 9.85205 10.353 10.8133 10.353 11.9991C10.353 13.1848 11.3143 14.1461 12.5 14.1461Z" fill="#53C1DE"/>
<path d="M5.014 15.8012C5.225 15.8712 5.436 15.9422 5.652 16.0032C5.582 16.2842 5.521 16.5612 5.464 16.8472C4.972 19.4492 5.356 21.5112 6.584 22.2192C7.85 22.9502 9.978 22.2002 12.05 20.3862C12.214 20.2412 12.378 20.0912 12.542 19.9312C12.748 20.1332 12.964 20.3252 13.179 20.5122C15.185 22.2372 17.168 22.9352 18.392 22.2282C19.658 21.4972 20.07 19.2802 19.536 16.5802C19.4927 16.3684 19.4457 16.1573 19.395 15.9472C19.545 15.9052 19.69 15.8582 19.836 15.8112C22.541 14.9162 24.5 13.4672 24.5 11.9812C24.5 10.5612 22.653 9.18319 20.103 8.30619C19.8513 8.22243 19.5983 8.14175 19.344 8.06619C19.386 7.89319 19.424 7.71919 19.461 7.54619C20.038 4.75219 19.658 2.50819 18.378 1.76719C17.145 1.05919 15.134 1.79519 13.1 3.56719C12.898 3.74019 12.702 3.92319 12.514 4.10619C12.3865 3.98352 12.2568 3.86317 12.125 3.74519C9.992 1.85119 7.855 1.05419 6.575 1.80019C5.347 2.51319 4.981 4.62719 5.497 7.26919C5.549 7.53219 5.605 7.78919 5.67 8.05219C5.37 8.13619 5.075 8.23019 4.798 8.32919C2.295 9.19619 0.5 10.5652 0.5 11.9812C0.5 13.4442 2.412 14.9102 5.014 15.8012ZM11.389 19.6202C10.6161 20.3287 9.72 20.8896 8.745 21.2752C8.225 21.5232 7.625 21.5472 7.09 21.3362C6.345 20.9052 6.035 19.2502 6.457 17.0232C6.509 16.7612 6.565 16.4982 6.63 16.2402C7.68 16.4652 8.739 16.6202 9.813 16.6992C10.4326 17.5768 11.1091 18.413 11.838 19.2022C11.688 19.3472 11.538 19.4882 11.388 19.6192L11.389 19.6202ZM17.342 10.8182C17.1232 10.4045 16.8965 9.99513 16.662 9.59019C16.432 9.19219 16.193 8.79819 15.945 8.40919C16.7 8.50319 17.422 8.62919 18.097 8.78419C17.881 9.4749 17.629 10.1538 17.342 10.8182ZM17.351 13.1522C17.651 13.8322 17.914 14.5212 18.143 15.2292C17.416 15.3932 16.681 15.5202 15.94 15.6042C16.4455 14.8076 16.9162 13.9895 17.351 13.1522ZM16.809 11.9862C16.1799 13.2804 15.4629 14.53 14.663 15.7262C13.965 15.7782 13.238 15.8012 12.502 15.8012C11.766 15.8012 11.054 15.7782 10.365 15.7352C9.55143 14.5479 8.82902 13.3007 8.204 12.0042H8.202C8.82192 10.7094 9.53967 9.46381 10.349 8.27819C11.7817 8.17213 13.2203 8.17213 14.653 8.27819C15.051 8.86919 15.431 9.47319 15.792 10.0922C16.152 10.712 16.4912 11.3437 16.809 11.9862ZM8.332 9.59919C8.102 9.99719 7.877 10.4042 7.666 10.8172C7.3829 10.1488 7.1326 9.46699 6.916 8.77419C7.591 8.62419 8.308 8.50219 9.053 8.40819C8.806 8.79719 8.562 9.19519 8.332 9.59919ZM7.667 13.1892C7.883 13.6022 8.103 14.0102 8.337 14.4132C8.576 14.8212 8.82 15.2292 9.078 15.6272C8.3474 15.5476 7.62142 15.4301 6.903 15.2752C7.109 14.6002 7.367 13.9022 7.667 13.1892ZM12.538 18.4802C12.0362 17.9375 11.5623 17.3698 11.118 16.7792C12.0536 16.8175 12.9905 16.8158 13.926 16.7742C13.4951 17.368 13.0317 17.9375 12.538 18.4802ZM18.665 19.8882C18.643 20.1725 18.563 20.4492 18.4299 20.7014C18.2968 20.9535 18.1134 21.1757 17.891 21.3542C17.146 21.7852 15.557 21.2232 13.841 19.7512C13.6391 19.5755 13.4407 19.3958 13.246 19.2122C13.9623 18.4213 14.6232 17.582 15.224 16.7002C16.2998 16.611 17.3681 16.4466 18.421 16.2082C18.468 16.4002 18.51 16.5922 18.548 16.7802C18.7769 17.8003 18.8166 18.8538 18.665 19.8882ZM19.072 9.03219C19.316 9.10219 19.55 9.17719 19.775 9.25219C21.959 10.0022 23.492 11.1182 23.492 11.9712C23.492 12.8902 21.856 14.0762 19.517 14.8492C19.386 14.8912 19.255 14.9332 19.119 14.9712C18.7885 13.9484 18.3893 12.9491 17.924 11.9802C18.374 11.0242 18.754 10.0392 19.072 9.03219ZM13.76 4.32619C15.505 2.80819 17.131 2.21319 17.872 2.63919C18.664 3.09419 18.969 4.93119 18.472 7.34519C18.4407 7.50257 18.4047 7.65897 18.364 7.81419C17.3245 7.57894 16.2705 7.41291 15.209 7.31719C14.6004 6.44295 13.9332 5.61104 13.212 4.82719C13.395 4.65419 13.573 4.49019 13.76 4.32619ZM12.51 5.54519C13.002 6.07919 13.466 6.64119 13.897 7.22219C12.9678 7.18019 12.0372 7.18019 11.108 7.22219C11.567 6.61819 12.041 6.05619 12.51 5.54519ZM7.072 2.67219C7.86 2.21319 9.608 2.86919 11.45 4.50019C11.567 4.60319 11.684 4.71619 11.806 4.82819C11.0803 5.61117 10.4084 6.4424 9.795 7.31619C8.73559 7.41092 7.68341 7.57392 6.645 7.80419C6.584 7.56519 6.533 7.32119 6.481 7.07719C6.04 4.80819 6.331 3.09819 7.072 2.67219ZM5.127 9.28019C5.394 9.18619 5.666 9.10219 5.938 9.02219C6.25669 10.0393 6.64014 11.035 7.086 12.0032C6.636 12.9832 6.247 13.9952 5.924 15.0262L5.923 15.0272C5.72771 14.9715 5.53397 14.9104 5.342 14.8442C4.344 14.5302 3.209 14.0332 2.389 13.3822C2.15492 13.2203 1.95614 13.0125 1.80471 12.7715C1.65327 12.5306 1.55233 12.2613 1.508 11.9802C1.508 11.1222 2.989 10.0252 5.127 9.28019Z" fill="#53C1DE"/>
</g>
<defs>
<clipPath id="clip0_39_308">
<rect width="24" height="24" fill="white" transform="translate(0.5)"/>
</clipPath>
</defs>
</svg>
