<svg width="25" height="24" viewBox="0 0 25 24" fill="none" xmlns="http://www.w3.org/2000/svg">
<g clip-path="url(#clip0_39_311)">
<path d="M8.65206 3.71098C9.55106 2.57498 11.2441 2.01398 12.3981 1.98498C15.6341 1.92298 16.9831 5.99798 17.0871 7.61798L18.5851 8.07198C18.2401 3.10598 15.1851 0.500977 12.2621 0.500977C9.52105 0.499977 6.99005 2.51398 5.97005 5.46698C4.57705 9.40398 5.49105 13.189 7.19905 16.218C7.05005 16.415 6.96005 16.762 6.99005 17.095C7.01905 18.004 7.78305 18.761 8.69805 18.761H8.75806C8.98445 18.7545 9.20726 18.7028 9.41339 18.6089C9.61951 18.5151 9.80479 18.381 9.95834 18.2145C10.1119 18.048 10.2306 17.8525 10.3075 17.6394C10.3844 17.4264 10.4179 17.2002 10.4061 16.974C10.4061 16.065 9.62706 15.31 8.71306 15.31H8.65206C8.59206 15.31 8.50305 15.31 8.42705 15.339C7.18405 13.219 6.65905 10.947 6.85505 8.49598C6.97405 6.64798 7.57406 5.04298 8.65206 3.71098Z" fill="#6C4EB0"/>
<path d="M1.43188 20.8981C2.43588 22.4121 4.48888 23.3801 6.73588 23.3801C7.33488 23.3801 7.96488 23.3361 8.57888 23.1841C12.4749 22.4271 15.4269 20.0651 17.1199 16.5831L17.1339 16.5521C18.0029 16.4761 18.6769 15.7031 18.6329 14.7791C18.5869 13.8551 17.8379 13.1141 16.9249 13.1141H16.8639C15.9209 13.1451 15.1859 13.9471 15.2159 14.9021C15.2459 15.3861 15.4419 15.7801 15.7099 16.0671C14.6619 18.1271 13.0889 19.6401 10.7059 20.9131C9.10288 21.7601 7.40988 22.0791 5.76188 21.8521C4.38388 21.6561 3.30588 21.0331 2.64588 20.0351C1.65788 18.5201 1.56788 16.8861 2.39088 15.2511C2.99188 14.0701 3.88988 13.2071 4.48988 12.7821C4.33988 12.3891 4.15988 11.7231 4.06988 11.2241C-0.36712 14.4331 0.0838801 18.8231 1.43188 20.8981Z" fill="#6C4EB0"/>
<path d="M23.9649 20.2299C24.8629 18.4129 24.7889 15.3549 22.4959 12.7349L22.4819 12.7649C20.1609 10.0089 16.7439 8.49494 12.8469 8.49494H12.3369C12.0839 7.93494 11.4999 7.58594 10.8399 7.58594H10.7949C9.85192 7.58594 9.11692 8.40494 9.14792 9.35794C9.17792 10.2659 9.94192 11.0239 10.8559 11.0239H10.9299C11.2551 11.0101 11.5694 10.9027 11.8351 10.7147C12.1008 10.5266 12.3066 10.266 12.4279 9.96394H12.9829C15.2919 9.96394 17.4779 10.6449 19.4719 11.9769C20.9989 12.9919 22.0939 14.3239 22.7079 15.9139C23.2459 17.2159 23.2169 18.4879 22.6629 19.5489C21.8089 21.2139 20.3699 22.0929 18.4679 22.0929C17.2689 22.0929 16.1009 21.7139 15.5009 21.4419C15.1419 21.7429 14.5419 22.2429 14.1069 22.5469C15.4249 23.1509 16.7589 23.4999 18.0469 23.4999C20.9689 23.4999 23.1399 21.8359 23.9649 20.2299Z" fill="#6C4EB0"/>
</g>
<defs>
<clipPath id="clip0_39_311">
<rect width="24" height="24" fill="white" transform="translate(0.5)"/>
</clipPath>
</defs>
</svg>
