<svg width="25" height="24" viewBox="0 0 25 24" fill="none" xmlns="http://www.w3.org/2000/svg">
<g clip-path="url(#clip0_39_315)">
<path d="M12.5 24C19.127 24 24.5 18.627 24.5 12C24.5 5.374 19.127 0 12.5 0C5.873 0 0.5 5.373 0.5 12C0.5 18.627 5.873 24 12.5 24ZM6.911 6.759C8.46 5.311 10.615 4.2 12.603 3.492C15.949 2.302 19.484 3.004 20.026 5.137L19.953 5.07C20.478 7.17 18.663 9.676 16.339 10.575C14.27 11.384 12.543 11.25 11.839 11.025C11.028 10.755 10.563 10.23 10.443 9.93C10.398 9.811 10.322 9.616 10.443 9.555C10.517 9.509 10.547 9.524 10.756 9.749C10.952 9.96 11.717 10.53 13.187 10.364C17.042 9.93 19.351 6.944 18.619 5.34C18.109 4.215 15.153 3.704 11.448 5.55C6.932 7.8 6.677 9.659 6.648 10.364C6.543 12.299 9.048 13.319 10.398 14.773L10.503 14.879C10.907 14.714 11.478 14.638 12.378 14.623C14.567 14.594 15.798 16.033 15.753 17.323C15.708 18.344 14.778 18.764 14.612 18.794C14.493 18.809 14.417 18.809 14.402 18.719C14.387 18.659 14.432 18.629 14.583 18.538C14.734 18.448 15.167 18.133 15.257 17.594C15.348 17.054 14.928 15.735 12.827 15.494C12.077 15.403 11.493 15.463 10.997 15.598C11.36 16.393 11.432 18.013 10.593 19.274C9.723 20.563 8.103 21.36 6.528 20.923C6.017 20.789 5.238 19.738 5.913 18.268C6.543 16.872 9.232 15.524 9.598 15.343V15.337C8.353 14.264 5.323 12.819 4.896 10.607C4.775 9.98 5.068 8.481 6.911 6.759Z" fill="#C76495"/>
<path d="M7.30306 19.7611C7.72106 20.0031 8.69606 19.7151 9.39306 18.9561C9.62306 18.7061 9.80806 18.4351 9.94806 18.1461L10.0261 17.9691L10.0901 17.7891C10.2711 17.2451 10.2891 16.6411 10.1141 15.9971L10.0051 16.0571V16.0611C10.0051 16.0611 8.75606 16.6521 7.88506 17.5701C7.07706 18.4261 6.85406 19.4991 7.30306 19.7611Z" fill="#C76495"/>
<path d="M10.5 9.53418C10.481 9.53418 10.464 9.54218 10.443 9.55518C10.322 9.61518 10.398 9.81118 10.443 9.93018C10.562 10.2312 11.028 10.7552 11.839 11.0252C12.005 11.0782 12.229 11.1262 12.5 11.1582V10.3902C11.475 10.3462 10.92 9.92418 10.757 9.74918C10.607 9.58718 10.549 9.53418 10.5 9.53418ZM7.67198 19.8442C7.52598 19.8442 7.39998 19.8162 7.30298 19.7612C6.85398 19.4992 7.07698 18.4262 7.88698 17.5712C8.75798 16.6532 10.007 16.0622 10.007 16.0622V16.0582L10.116 15.9982C10.291 16.6432 10.272 17.2462 10.092 17.7902L10.028 17.9702L9.94998 18.1472C9.80998 18.4362 9.62398 18.7072 9.39498 18.9572C8.85698 19.5392 8.15698 19.8442 7.67198 19.8442Z" fill="#DEDEDE"/>
<path d="M10.115 15.998L10.006 16.058V16.062C10.006 16.062 8.75702 16.653 7.88602 17.571C7.07702 18.425 6.85302 19.499 7.30202 19.761C7.39902 19.817 7.52502 19.844 7.67102 19.844C8.15602 19.844 8.85602 19.539 9.39202 18.956C9.62202 18.706 9.80702 18.435 9.94702 18.146L10.025 17.969L10.089 17.789C10.271 17.246 10.29 16.643 10.115 15.998Z" fill="#AD5782"/>
</g>
<defs>
<clipPath id="clip0_39_315">
<rect width="24" height="24" fill="white" transform="translate(0.5)"/>
</clipPath>
</defs>
</svg>
