<svg width="25" height="24" viewBox="0 0 25 24" fill="none" xmlns="http://www.w3.org/2000/svg">
<g clip-path="url(#clip0_39_266)">
<path d="M0.5 12V24H24.5V0H0.5V12ZM15.063 19.626C15.171 19.565 15.574 19.332 15.955 19.111L16.645 18.711L16.79 18.925C16.992 19.233 17.433 19.656 17.7 19.797C18.466 20.201 19.517 20.144 20.035 19.679C20.1335 19.5963 20.2126 19.493 20.2669 19.3763C20.3211 19.2597 20.3492 19.1326 20.349 19.004L20.348 18.957V18.959C20.348 18.681 20.313 18.559 20.168 18.349C19.982 18.083 19.601 17.859 18.519 17.389C17.281 16.856 16.748 16.525 16.26 15.999C15.96 15.658 15.7372 15.2561 15.607 14.821L15.601 14.799C15.51 14.46 15.487 13.61 15.559 13.268C15.814 12.071 16.717 11.238 18.02 10.99C18.443 10.91 19.426 10.94 19.841 11.043C20.451 11.195 20.915 11.467 21.342 11.909C21.563 12.145 21.891 12.575 21.917 12.679C21.925 12.709 20.881 13.409 20.249 13.802C20.226 13.817 20.134 13.718 20.032 13.566C19.722 13.116 19.399 12.922 18.904 12.888C18.176 12.838 17.708 13.219 17.712 13.855L17.711 13.892C17.711 14.043 17.749 14.185 17.816 14.309L17.814 14.304C17.974 14.635 18.272 14.834 19.204 15.237C20.923 15.977 21.658 16.464 22.115 17.157C22.625 17.93 22.74 19.165 22.393 20.083C22.013 21.081 21.068 21.759 19.738 21.983C19.327 22.056 18.352 22.045 17.91 21.965C16.946 21.793 16.032 21.317 15.468 20.692C15.247 20.449 14.816 19.812 14.843 19.767C14.9123 19.714 14.9859 19.6668 15.063 19.626ZM5.758 12.065C5.758 11.531 5.769 11.085 5.784 11.075C5.796 11.059 7.697 11.051 10.001 11.055L14.196 11.067L14.207 12.046L14.215 13.029H11.09V21.905H8.88V13.029H5.758V12.065Z" fill="#1677C7"/>
</g>
<defs>
<clipPath id="clip0_39_266">
<rect width="24" height="24" fill="white" transform="translate(0.5)"/>
</clipPath>
</defs>
</svg>
