<svg width="22" height="24" viewBox="0 0 22 24" fill="none" xmlns="http://www.w3.org/2000/svg">
<g clip-path="url(#clip0_42_394)">
<path d="M10.6286 0L21.2571 5.99931V18.0007L10.6286 24L0 18.0007V5.99931L10.6286 0Z" fill="white"/>
<path d="M19.3593 17.5869L10.9801 22.3173V18.6338L16.201 15.7671L19.3593 17.5869ZM19.9333 17.0689V7.17784L16.8684 8.94557V15.3039L19.9333 17.0689ZM1.86477 17.5869L10.244 22.3173V18.6338L5.02038 15.7671L1.86477 17.5869ZM1.29077 17.0689V7.17784L4.35576 8.94557V15.3039L1.29077 17.0689ZM1.65055 6.53652L10.244 1.68555V5.24567L4.7375 8.26862L4.69356 8.29329L1.65055 6.53652ZM19.5736 6.53652L10.9801 1.68555V5.24567L16.4866 8.26588L16.5306 8.29055L19.5736 6.53652Z" fill="#8ED6FB"/>
<path d="M10.244 17.7952L5.0918 14.9668V9.36766L10.244 12.3358V17.7952ZM10.9801 17.7952L16.1323 14.9696V9.36766L10.9801 12.3358V17.7952ZM5.44059 8.72087L10.6121 5.88428L15.7835 8.72087L10.6121 11.7L5.44059 8.72087Z" fill="#1C78C0"/>
</g>
<defs>
<clipPath id="clip0_42_394">
<rect width="21.2571" height="24" fill="white"/>
</clipPath>
</defs>
</svg>
